%TF.GenerationSoftware,KiCad,Pcbnew,(5.1.10)-1*%
%TF.CreationDate,2022-01-25T20:11:50-05:00*%
%TF.ProjectId,ISP_Arduino,4953505f-4172-4647-9569-6e6f2e6b6963,rev?*%
%TF.SameCoordinates,Original*%
%TF.FileFunction,Legend,Top*%
%TF.FilePolarity,Positive*%
%FSLAX46Y46*%
G04 Gerber Fmt 4.6, Leading zero omitted, Abs format (unit mm)*
G04 Created by KiCad (PCBNEW (5.1.10)-1) date 2022-01-25 20:11:50*
%MOMM*%
%LPD*%
G01*
G04 APERTURE LIST*
%ADD10C,0.200000*%
%ADD11C,0.120000*%
%ADD12C,0.127000*%
%ADD13C,0.150000*%
%ADD14C,0.120004*%
%ADD15C,0.120100*%
G04 APERTURE END LIST*
D10*
X145326190Y-94054761D02*
X145326190Y-95673809D01*
X145421428Y-95864285D01*
X145516666Y-95959523D01*
X145707142Y-96054761D01*
X146088095Y-96054761D01*
X146278571Y-95959523D01*
X146373809Y-95864285D01*
X146469047Y-95673809D01*
X146469047Y-94054761D01*
X147326190Y-95959523D02*
X147611904Y-96054761D01*
X148088095Y-96054761D01*
X148278571Y-95959523D01*
X148373809Y-95864285D01*
X148469047Y-95673809D01*
X148469047Y-95483333D01*
X148373809Y-95292857D01*
X148278571Y-95197619D01*
X148088095Y-95102380D01*
X147707142Y-95007142D01*
X147516666Y-94911904D01*
X147421428Y-94816666D01*
X147326190Y-94626190D01*
X147326190Y-94435714D01*
X147421428Y-94245238D01*
X147516666Y-94150000D01*
X147707142Y-94054761D01*
X148183333Y-94054761D01*
X148469047Y-94150000D01*
X149992857Y-95007142D02*
X150278571Y-95102380D01*
X150373809Y-95197619D01*
X150469047Y-95388095D01*
X150469047Y-95673809D01*
X150373809Y-95864285D01*
X150278571Y-95959523D01*
X150088095Y-96054761D01*
X149326190Y-96054761D01*
X149326190Y-94054761D01*
X149992857Y-94054761D01*
X150183333Y-94150000D01*
X150278571Y-94245238D01*
X150373809Y-94435714D01*
X150373809Y-94626190D01*
X150278571Y-94816666D01*
X150183333Y-94911904D01*
X149992857Y-95007142D01*
X149326190Y-95007142D01*
X151326190Y-95292857D02*
X152850000Y-95292857D01*
X153707142Y-95483333D02*
X154659523Y-95483333D01*
X153516666Y-96054761D02*
X154183333Y-94054761D01*
X154850000Y-96054761D01*
X155516666Y-95007142D02*
X157040476Y-95007142D01*
X157040476Y-95578571D02*
X155516666Y-95578571D01*
X157992857Y-94721428D02*
X159516666Y-95292857D01*
X157992857Y-95864285D01*
X160469047Y-96054761D02*
X160469047Y-94054761D01*
X161326190Y-95959523D02*
X161611904Y-96054761D01*
X162088095Y-96054761D01*
X162278571Y-95959523D01*
X162373809Y-95864285D01*
X162469047Y-95673809D01*
X162469047Y-95483333D01*
X162373809Y-95292857D01*
X162278571Y-95197619D01*
X162088095Y-95102380D01*
X161707142Y-95007142D01*
X161516666Y-94911904D01*
X161421428Y-94816666D01*
X161326190Y-94626190D01*
X161326190Y-94435714D01*
X161421428Y-94245238D01*
X161516666Y-94150000D01*
X161707142Y-94054761D01*
X162183333Y-94054761D01*
X162469047Y-94150000D01*
X163326190Y-96054761D02*
X163326190Y-94054761D01*
X164088095Y-94054761D01*
X164278571Y-94150000D01*
X164373809Y-94245238D01*
X164469047Y-94435714D01*
X164469047Y-94721428D01*
X164373809Y-94911904D01*
X164278571Y-95007142D01*
X164088095Y-95102380D01*
X163326190Y-95102380D01*
D11*
%TO.C,D2*%
X122800000Y-87450000D02*
X122800000Y-83600000D01*
X124800000Y-87450000D02*
X124800000Y-83600000D01*
X122800000Y-87450000D02*
X124800000Y-87450000D01*
%TO.C,D1*%
X126150000Y-87450000D02*
X126150000Y-83600000D01*
X128150000Y-87450000D02*
X128150000Y-83600000D01*
X126150000Y-87450000D02*
X128150000Y-87450000D01*
%TO.C,JP1*%
X154650000Y-87300000D02*
X151850000Y-87300000D01*
X151850000Y-87300000D02*
X151850000Y-85300000D01*
X151850000Y-85300000D02*
X154650000Y-85300000D01*
X154650000Y-85300000D02*
X154650000Y-87300000D01*
D10*
%TO.C,U1*%
X133500000Y-83950000D02*
G75*
G03*
X133500000Y-83950000I-100000J0D01*
G01*
D12*
X141430000Y-93600000D02*
X135070000Y-93600000D01*
X135070000Y-84000000D02*
X141430000Y-84000000D01*
D11*
%TO.C,R6*%
X155052064Y-91015000D02*
X153597936Y-91015000D01*
X155052064Y-92835000D02*
X153597936Y-92835000D01*
%TO.C,R5*%
X164285000Y-88652064D02*
X164285000Y-87197936D01*
X162465000Y-88652064D02*
X162465000Y-87197936D01*
%TO.C,R4*%
X131360000Y-92977064D02*
X131360000Y-91522936D01*
X129540000Y-92977064D02*
X129540000Y-91522936D01*
%TO.C,R3*%
X129540000Y-84522936D02*
X129540000Y-85977064D01*
X131360000Y-84522936D02*
X131360000Y-85977064D01*
%TO.C,R2*%
X128010000Y-92977064D02*
X128010000Y-91522936D01*
X126190000Y-92977064D02*
X126190000Y-91522936D01*
%TO.C,R1*%
X124710000Y-92977064D02*
X124710000Y-91522936D01*
X122890000Y-92977064D02*
X122890000Y-91522936D01*
%TO.C,J2*%
X145470000Y-84970000D02*
X146800000Y-84970000D01*
X145470000Y-86300000D02*
X145470000Y-84970000D01*
X148070000Y-84970000D02*
X150670000Y-84970000D01*
X148070000Y-87570000D02*
X148070000Y-84970000D01*
X145470000Y-87570000D02*
X148070000Y-87570000D01*
X150670000Y-84970000D02*
X150670000Y-92710000D01*
X145470000Y-87570000D02*
X145470000Y-92710000D01*
X145470000Y-92710000D02*
X150670000Y-92710000D01*
D10*
%TO.C,J1*%
X120294000Y-92599000D02*
G75*
G03*
X120294000Y-92599000I-100000J0D01*
G01*
D12*
X116900000Y-84500000D02*
X116900000Y-84700000D01*
X116900000Y-93700000D02*
X116900000Y-93500000D01*
X114000000Y-83100000D02*
X113200000Y-83100000D01*
X113200000Y-95100000D02*
X114000000Y-95100000D01*
%TO.C,D4*%
X155855000Y-88235000D02*
X152795000Y-88235000D01*
X155855000Y-90315000D02*
X152795000Y-90315000D01*
%TO.C,D3*%
X160930000Y-88235000D02*
X157870000Y-88235000D01*
X160930000Y-90315000D02*
X157870000Y-90315000D01*
D11*
%TO.C,C1*%
X157838748Y-87285000D02*
X159261252Y-87285000D01*
X157838748Y-85465000D02*
X159261252Y-85465000D01*
%TO.C,D2*%
D13*
X123061904Y-88552380D02*
X123061904Y-87552380D01*
X123300000Y-87552380D01*
X123442857Y-87600000D01*
X123538095Y-87695238D01*
X123585714Y-87790476D01*
X123633333Y-87980952D01*
X123633333Y-88123809D01*
X123585714Y-88314285D01*
X123538095Y-88409523D01*
X123442857Y-88504761D01*
X123300000Y-88552380D01*
X123061904Y-88552380D01*
X124014285Y-87647619D02*
X124061904Y-87600000D01*
X124157142Y-87552380D01*
X124395238Y-87552380D01*
X124490476Y-87600000D01*
X124538095Y-87647619D01*
X124585714Y-87742857D01*
X124585714Y-87838095D01*
X124538095Y-87980952D01*
X123966666Y-88552380D01*
X124585714Y-88552380D01*
%TO.C,D1*%
X126461904Y-88552380D02*
X126461904Y-87552380D01*
X126700000Y-87552380D01*
X126842857Y-87600000D01*
X126938095Y-87695238D01*
X126985714Y-87790476D01*
X127033333Y-87980952D01*
X127033333Y-88123809D01*
X126985714Y-88314285D01*
X126938095Y-88409523D01*
X126842857Y-88504761D01*
X126700000Y-88552380D01*
X126461904Y-88552380D01*
X127985714Y-88552380D02*
X127414285Y-88552380D01*
X127700000Y-88552380D02*
X127700000Y-87552380D01*
X127604761Y-87695238D01*
X127509523Y-87790476D01*
X127414285Y-87838095D01*
%TO.C,JP1*%
X152416666Y-83977380D02*
X152416666Y-84691666D01*
X152369047Y-84834523D01*
X152273809Y-84929761D01*
X152130952Y-84977380D01*
X152035714Y-84977380D01*
X152892857Y-84977380D02*
X152892857Y-83977380D01*
X153273809Y-83977380D01*
X153369047Y-84025000D01*
X153416666Y-84072619D01*
X153464285Y-84167857D01*
X153464285Y-84310714D01*
X153416666Y-84405952D01*
X153369047Y-84453571D01*
X153273809Y-84501190D01*
X152892857Y-84501190D01*
X154416666Y-84977380D02*
X153845238Y-84977380D01*
X154130952Y-84977380D02*
X154130952Y-83977380D01*
X154035714Y-84120238D01*
X153940476Y-84215476D01*
X153845238Y-84263095D01*
%TO.C,U1*%
X136400208Y-87140775D02*
X136400208Y-89371803D01*
X136531445Y-89634277D01*
X136662682Y-89765514D01*
X136925156Y-89896751D01*
X137450104Y-89896751D01*
X137712578Y-89765514D01*
X137843815Y-89634277D01*
X137975052Y-89371803D01*
X137975052Y-87140775D01*
X140731028Y-89896751D02*
X139156184Y-89896751D01*
X139943606Y-89896751D02*
X139943606Y-87140775D01*
X139681132Y-87534485D01*
X139418658Y-87796959D01*
X139156184Y-87928196D01*
%TO.C,R6*%
X157483333Y-92602380D02*
X157150000Y-92126190D01*
X156911904Y-92602380D02*
X156911904Y-91602380D01*
X157292857Y-91602380D01*
X157388095Y-91650000D01*
X157435714Y-91697619D01*
X157483333Y-91792857D01*
X157483333Y-91935714D01*
X157435714Y-92030952D01*
X157388095Y-92078571D01*
X157292857Y-92126190D01*
X156911904Y-92126190D01*
X158340476Y-91602380D02*
X158150000Y-91602380D01*
X158054761Y-91650000D01*
X158007142Y-91697619D01*
X157911904Y-91840476D01*
X157864285Y-92030952D01*
X157864285Y-92411904D01*
X157911904Y-92507142D01*
X157959523Y-92554761D01*
X158054761Y-92602380D01*
X158245238Y-92602380D01*
X158340476Y-92554761D01*
X158388095Y-92507142D01*
X158435714Y-92411904D01*
X158435714Y-92173809D01*
X158388095Y-92078571D01*
X158340476Y-92030952D01*
X158245238Y-91983333D01*
X158054761Y-91983333D01*
X157959523Y-92030952D01*
X157911904Y-92078571D01*
X157864285Y-92173809D01*
%TO.C,R5*%
X163233333Y-85402380D02*
X162900000Y-84926190D01*
X162661904Y-85402380D02*
X162661904Y-84402380D01*
X163042857Y-84402380D01*
X163138095Y-84450000D01*
X163185714Y-84497619D01*
X163233333Y-84592857D01*
X163233333Y-84735714D01*
X163185714Y-84830952D01*
X163138095Y-84878571D01*
X163042857Y-84926190D01*
X162661904Y-84926190D01*
X164138095Y-84402380D02*
X163661904Y-84402380D01*
X163614285Y-84878571D01*
X163661904Y-84830952D01*
X163757142Y-84783333D01*
X163995238Y-84783333D01*
X164090476Y-84830952D01*
X164138095Y-84878571D01*
X164185714Y-84973809D01*
X164185714Y-85211904D01*
X164138095Y-85307142D01*
X164090476Y-85354761D01*
X163995238Y-85402380D01*
X163757142Y-85402380D01*
X163661904Y-85354761D01*
X163614285Y-85307142D01*
%TO.C,R4*%
X130383333Y-95802380D02*
X130050000Y-95326190D01*
X129811904Y-95802380D02*
X129811904Y-94802380D01*
X130192857Y-94802380D01*
X130288095Y-94850000D01*
X130335714Y-94897619D01*
X130383333Y-94992857D01*
X130383333Y-95135714D01*
X130335714Y-95230952D01*
X130288095Y-95278571D01*
X130192857Y-95326190D01*
X129811904Y-95326190D01*
X131240476Y-95135714D02*
X131240476Y-95802380D01*
X131002380Y-94754761D02*
X130764285Y-95469047D01*
X131383333Y-95469047D01*
%TO.C,R3*%
X130283333Y-88802380D02*
X129950000Y-88326190D01*
X129711904Y-88802380D02*
X129711904Y-87802380D01*
X130092857Y-87802380D01*
X130188095Y-87850000D01*
X130235714Y-87897619D01*
X130283333Y-87992857D01*
X130283333Y-88135714D01*
X130235714Y-88230952D01*
X130188095Y-88278571D01*
X130092857Y-88326190D01*
X129711904Y-88326190D01*
X130616666Y-87802380D02*
X131235714Y-87802380D01*
X130902380Y-88183333D01*
X131045238Y-88183333D01*
X131140476Y-88230952D01*
X131188095Y-88278571D01*
X131235714Y-88373809D01*
X131235714Y-88611904D01*
X131188095Y-88707142D01*
X131140476Y-88754761D01*
X131045238Y-88802380D01*
X130759523Y-88802380D01*
X130664285Y-88754761D01*
X130616666Y-88707142D01*
%TO.C,R2*%
X126983333Y-95802380D02*
X126650000Y-95326190D01*
X126411904Y-95802380D02*
X126411904Y-94802380D01*
X126792857Y-94802380D01*
X126888095Y-94850000D01*
X126935714Y-94897619D01*
X126983333Y-94992857D01*
X126983333Y-95135714D01*
X126935714Y-95230952D01*
X126888095Y-95278571D01*
X126792857Y-95326190D01*
X126411904Y-95326190D01*
X127364285Y-94897619D02*
X127411904Y-94850000D01*
X127507142Y-94802380D01*
X127745238Y-94802380D01*
X127840476Y-94850000D01*
X127888095Y-94897619D01*
X127935714Y-94992857D01*
X127935714Y-95088095D01*
X127888095Y-95230952D01*
X127316666Y-95802380D01*
X127935714Y-95802380D01*
%TO.C,R1*%
X123733333Y-95802380D02*
X123400000Y-95326190D01*
X123161904Y-95802380D02*
X123161904Y-94802380D01*
X123542857Y-94802380D01*
X123638095Y-94850000D01*
X123685714Y-94897619D01*
X123733333Y-94992857D01*
X123733333Y-95135714D01*
X123685714Y-95230952D01*
X123638095Y-95278571D01*
X123542857Y-95326190D01*
X123161904Y-95326190D01*
X124685714Y-95802380D02*
X124114285Y-95802380D01*
X124400000Y-95802380D02*
X124400000Y-94802380D01*
X124304761Y-94945238D01*
X124209523Y-95040476D01*
X124114285Y-95088095D01*
%TO.C,J2*%
X147736666Y-83422380D02*
X147736666Y-84136666D01*
X147689047Y-84279523D01*
X147593809Y-84374761D01*
X147450952Y-84422380D01*
X147355714Y-84422380D01*
X148165238Y-83517619D02*
X148212857Y-83470000D01*
X148308095Y-83422380D01*
X148546190Y-83422380D01*
X148641428Y-83470000D01*
X148689047Y-83517619D01*
X148736666Y-83612857D01*
X148736666Y-83708095D01*
X148689047Y-83850952D01*
X148117619Y-84422380D01*
X148736666Y-84422380D01*
%TO.C,J1*%
X115352380Y-89483333D02*
X116066666Y-89483333D01*
X116209523Y-89530952D01*
X116304761Y-89626190D01*
X116352380Y-89769047D01*
X116352380Y-89864285D01*
X116352380Y-88483333D02*
X116352380Y-89054761D01*
X116352380Y-88769047D02*
X115352380Y-88769047D01*
X115495238Y-88864285D01*
X115590476Y-88959523D01*
X115638095Y-89054761D01*
%TO.C,D4*%
D14*
X153995701Y-88117150D02*
X153995701Y-87637133D01*
X154109991Y-87637133D01*
X154178565Y-87659991D01*
X154224281Y-87705707D01*
X154247139Y-87751423D01*
X154269997Y-87842855D01*
X154269997Y-87911428D01*
X154247139Y-88002860D01*
X154224281Y-88048576D01*
X154178565Y-88094292D01*
X154109991Y-88117150D01*
X153995701Y-88117150D01*
X154681440Y-87797139D02*
X154681440Y-88117150D01*
X154567150Y-87614275D02*
X154452860Y-87957144D01*
X154750014Y-87957144D01*
D13*
D15*
X153933982Y-90259801D02*
X153888230Y-90236924D01*
X153819602Y-90236924D01*
X153750973Y-90259801D01*
X153705221Y-90305553D01*
X153682345Y-90351305D01*
X153659469Y-90442809D01*
X153659469Y-90511438D01*
X153682345Y-90602942D01*
X153705221Y-90648694D01*
X153750973Y-90694446D01*
X153819602Y-90717322D01*
X153865354Y-90717322D01*
X153933982Y-90694446D01*
X153956858Y-90671570D01*
X153956858Y-90511438D01*
X153865354Y-90511438D01*
X154437256Y-90717322D02*
X154277123Y-90488561D01*
X154162743Y-90717322D02*
X154162743Y-90236924D01*
X154345752Y-90236924D01*
X154391504Y-90259801D01*
X154414380Y-90282677D01*
X154437256Y-90328429D01*
X154437256Y-90397057D01*
X154414380Y-90442809D01*
X154391504Y-90465685D01*
X154345752Y-90488561D01*
X154162743Y-90488561D01*
X154643141Y-90717322D02*
X154643141Y-90236924D01*
X154917654Y-90717322D01*
X154917654Y-90236924D01*
D13*
%TO.C,D3*%
D14*
X159045701Y-88067150D02*
X159045701Y-87587133D01*
X159159991Y-87587133D01*
X159228565Y-87609991D01*
X159274281Y-87655707D01*
X159297139Y-87701423D01*
X159319997Y-87792855D01*
X159319997Y-87861428D01*
X159297139Y-87952860D01*
X159274281Y-87998576D01*
X159228565Y-88044292D01*
X159159991Y-88067150D01*
X159045701Y-88067150D01*
X159480002Y-87587133D02*
X159777156Y-87587133D01*
X159617150Y-87769997D01*
X159685724Y-87769997D01*
X159731440Y-87792855D01*
X159754298Y-87815713D01*
X159777156Y-87861428D01*
X159777156Y-87975718D01*
X159754298Y-88021434D01*
X159731440Y-88044292D01*
X159685724Y-88067150D01*
X159548576Y-88067150D01*
X159502860Y-88044292D01*
X159480002Y-88021434D01*
D13*
D15*
X159091172Y-91067322D02*
X158931040Y-90838561D01*
X158816659Y-91067322D02*
X158816659Y-90586924D01*
X158999668Y-90586924D01*
X159045420Y-90609801D01*
X159068296Y-90632677D01*
X159091172Y-90678429D01*
X159091172Y-90747057D01*
X159068296Y-90792809D01*
X159045420Y-90815685D01*
X158999668Y-90838561D01*
X158816659Y-90838561D01*
X159297057Y-90815685D02*
X159457190Y-90815685D01*
X159525818Y-91067322D02*
X159297057Y-91067322D01*
X159297057Y-90586924D01*
X159525818Y-90586924D01*
X159731703Y-91067322D02*
X159731703Y-90586924D01*
X159846083Y-90586924D01*
X159914712Y-90609801D01*
X159960464Y-90655553D01*
X159983340Y-90701305D01*
X160006216Y-90792809D01*
X160006216Y-90861438D01*
X159983340Y-90952942D01*
X159960464Y-90998694D01*
X159914712Y-91044446D01*
X159846083Y-91067322D01*
X159731703Y-91067322D01*
D13*
%TO.C,C1*%
X158383333Y-84882142D02*
X158335714Y-84929761D01*
X158192857Y-84977380D01*
X158097619Y-84977380D01*
X157954761Y-84929761D01*
X157859523Y-84834523D01*
X157811904Y-84739285D01*
X157764285Y-84548809D01*
X157764285Y-84405952D01*
X157811904Y-84215476D01*
X157859523Y-84120238D01*
X157954761Y-84025000D01*
X158097619Y-83977380D01*
X158192857Y-83977380D01*
X158335714Y-84025000D01*
X158383333Y-84072619D01*
X159335714Y-84977380D02*
X158764285Y-84977380D01*
X159050000Y-84977380D02*
X159050000Y-83977380D01*
X158954761Y-84120238D01*
X158859523Y-84215476D01*
X158764285Y-84263095D01*
%TD*%
M02*
