%TF.GenerationSoftware,KiCad,Pcbnew,(5.1.10)-1*%
%TF.CreationDate,2022-01-25T20:11:50-05:00*%
%TF.ProjectId,ISP_Arduino,4953505f-4172-4647-9569-6e6f2e6b6963,rev?*%
%TF.SameCoordinates,Original*%
%TF.FileFunction,Copper,L2,Bot*%
%TF.FilePolarity,Positive*%
%FSLAX46Y46*%
G04 Gerber Fmt 4.6, Leading zero omitted, Abs format (unit mm)*
G04 Created by KiCad (PCBNEW (5.1.10)-1) date 2022-01-25 20:11:50*
%MOMM*%
%LPD*%
G01*
G04 APERTURE LIST*
%TA.AperFunction,ComponentPad*%
%ADD10C,1.308000*%
%TD*%
%TA.AperFunction,ComponentPad*%
%ADD11R,1.308000X1.308000*%
%TD*%
%TA.AperFunction,ComponentPad*%
%ADD12O,1.700000X1.700000*%
%TD*%
%TA.AperFunction,ComponentPad*%
%ADD13R,1.700000X1.700000*%
%TD*%
%TA.AperFunction,ComponentPad*%
%ADD14O,3.200000X1.600000*%
%TD*%
%TA.AperFunction,ViaPad*%
%ADD15C,0.800000*%
%TD*%
%TA.AperFunction,Conductor*%
%ADD16C,0.500000*%
%TD*%
%TA.AperFunction,Conductor*%
%ADD17C,0.350000*%
%TD*%
G04 APERTURE END LIST*
D10*
%TO.P,U1,7*%
%TO.N,/SCK*%
X142185000Y-87530000D03*
%TO.P,U1,6*%
%TO.N,/MISO*%
X142185000Y-90070000D03*
%TO.P,U1,8*%
%TO.N,VCC*%
X142185000Y-84990000D03*
%TO.P,U1,5*%
%TO.N,/MOSI*%
X142185000Y-92610000D03*
D11*
%TO.P,U1,1*%
%TO.N,/RST*%
X134315000Y-84990000D03*
D10*
%TO.P,U1,4*%
%TO.N,GND*%
X134315000Y-92610000D03*
%TO.P,U1,2*%
%TO.N,Net-(R4-Pad1)*%
X134315000Y-87530000D03*
%TO.P,U1,3*%
%TO.N,Net-(R3-Pad1)*%
X134315000Y-90070000D03*
%TD*%
D12*
%TO.P,J2,6*%
%TO.N,GND*%
X149340000Y-91380000D03*
%TO.P,J2,5*%
%TO.N,/RST*%
X146800000Y-91380000D03*
%TO.P,J2,4*%
%TO.N,/MOSI*%
X149340000Y-88840000D03*
%TO.P,J2,3*%
%TO.N,/SCK*%
X146800000Y-88840000D03*
%TO.P,J2,2*%
%TO.N,Net-(D3-Pad2)*%
X149340000Y-86300000D03*
D13*
%TO.P,J2,1*%
%TO.N,/MISO*%
X146800000Y-86300000D03*
%TD*%
D14*
%TO.P,J1,S1*%
%TO.N,Net-(J1-PadS1)*%
X115900000Y-83400000D03*
%TO.P,J1,S2*%
X115900000Y-94800000D03*
%TD*%
D15*
%TO.N,GND*%
X128700000Y-83800000D03*
%TO.N,VCC*%
X125400000Y-90650000D03*
%TD*%
D16*
%TO.N,VCC*%
X125400000Y-90650000D02*
X128950000Y-90650000D01*
X128950000Y-90650000D02*
X133325000Y-86275000D01*
X140900000Y-86275000D02*
X142185000Y-84990000D01*
X133325000Y-86275000D02*
X140900000Y-86275000D01*
D17*
%TO.N,/MOSI*%
X142185000Y-92610000D02*
X143365000Y-92610000D01*
X143365000Y-92610000D02*
X145875000Y-90100000D01*
X148080000Y-90100000D02*
X149340000Y-88840000D01*
X145875000Y-90100000D02*
X148080000Y-90100000D01*
%TO.N,/MISO*%
X142185000Y-90070000D02*
X143355000Y-90070000D01*
X146800000Y-86625000D02*
X146800000Y-86300000D01*
X143355000Y-90070000D02*
X146800000Y-86625000D01*
%TD*%
M02*
