M48
; DRILL file {KiCad (5.1.10)-1} date 01/25/22 20:11:52
; FORMAT={-:-/ absolute / metric / decimal}
; #@! TF.CreationDate,2022-01-25T20:11:52-05:00
; #@! TF.GenerationSoftware,Kicad,Pcbnew,(5.1.10)-1
; #@! TF.FileFunction,Plated,1,2,PTH
FMAT,2
METRIC
T1C0.400
T2C0.800
T3C1.000
%
G90
G05
T1
X125.4Y-90.65
X128.7Y-83.8
T2
X134.315Y-84.99
X134.315Y-87.53
X134.315Y-90.07
X134.315Y-92.61
X142.185Y-84.99
X142.185Y-87.53
X142.185Y-90.07
X142.185Y-92.61
T3
X146.8Y-86.3
X146.8Y-88.84
X146.8Y-91.38
X149.34Y-86.3
X149.34Y-88.84
X149.34Y-91.38
T3
G00X116.65Y-83.4
M15
G01X115.15Y-83.4
M16
G05
G00X116.65Y-94.8
M15
G01X115.15Y-94.8
M16
G05
T0
M30
