%TF.GenerationSoftware,KiCad,Pcbnew,(5.1.10)-1*%
%TF.CreationDate,2022-01-25T20:11:50-05:00*%
%TF.ProjectId,ISP_Arduino,4953505f-4172-4647-9569-6e6f2e6b6963,rev?*%
%TF.SameCoordinates,Original*%
%TF.FileFunction,Soldermask,Top*%
%TF.FilePolarity,Negative*%
%FSLAX46Y46*%
G04 Gerber Fmt 4.6, Leading zero omitted, Abs format (unit mm)*
G04 Created by KiCad (PCBNEW (5.1.10)-1) date 2022-01-25 20:11:50*
%MOMM*%
%LPD*%
G01*
G04 APERTURE LIST*
%ADD10R,1.100000X1.100000*%
%ADD11C,0.100000*%
%ADD12C,1.308000*%
%ADD13R,1.308000X1.308000*%
%ADD14O,1.700000X1.700000*%
%ADD15R,1.700000X1.700000*%
%ADD16R,2.000000X1.200000*%
%ADD17C,1.100000*%
%ADD18O,3.200000X1.600000*%
G04 APERTURE END LIST*
D10*
%TO.C,D2*%
X123800000Y-83850000D03*
X123800000Y-86650000D03*
%TD*%
%TO.C,D1*%
X127150000Y-83850000D03*
X127150000Y-86650000D03*
%TD*%
D11*
%TO.C,JP1*%
G36*
X152975000Y-86300000D02*
G01*
X153475000Y-85550000D01*
X154475000Y-85550000D01*
X154475000Y-87050000D01*
X153475000Y-87050000D01*
X152975000Y-86300000D01*
G37*
G36*
X152025000Y-85550000D02*
G01*
X153175000Y-85550000D01*
X152675000Y-86300000D01*
X153175000Y-87050000D01*
X152025000Y-87050000D01*
X152025000Y-85550000D01*
G37*
%TD*%
D12*
%TO.C,U1*%
X142185000Y-87530000D03*
X142185000Y-90070000D03*
X142185000Y-84990000D03*
X142185000Y-92610000D03*
D13*
X134315000Y-84990000D03*
D12*
X134315000Y-92610000D03*
X134315000Y-87530000D03*
X134315000Y-90070000D03*
%TD*%
%TO.C,R6*%
G36*
G01*
X153425000Y-91300000D02*
X153425000Y-92550000D01*
G75*
G02*
X153175000Y-92800000I-250000J0D01*
G01*
X152375000Y-92800000D01*
G75*
G02*
X152125000Y-92550000I0J250000D01*
G01*
X152125000Y-91300000D01*
G75*
G02*
X152375000Y-91050000I250000J0D01*
G01*
X153175000Y-91050000D01*
G75*
G02*
X153425000Y-91300000I0J-250000D01*
G01*
G37*
G36*
G01*
X156525000Y-91300000D02*
X156525000Y-92550000D01*
G75*
G02*
X156275000Y-92800000I-250000J0D01*
G01*
X155475000Y-92800000D01*
G75*
G02*
X155225000Y-92550000I0J250000D01*
G01*
X155225000Y-91300000D01*
G75*
G02*
X155475000Y-91050000I250000J0D01*
G01*
X156275000Y-91050000D01*
G75*
G02*
X156525000Y-91300000I0J-250000D01*
G01*
G37*
%TD*%
%TO.C,R5*%
G36*
G01*
X164000000Y-87025000D02*
X162750000Y-87025000D01*
G75*
G02*
X162500000Y-86775000I0J250000D01*
G01*
X162500000Y-85975000D01*
G75*
G02*
X162750000Y-85725000I250000J0D01*
G01*
X164000000Y-85725000D01*
G75*
G02*
X164250000Y-85975000I0J-250000D01*
G01*
X164250000Y-86775000D01*
G75*
G02*
X164000000Y-87025000I-250000J0D01*
G01*
G37*
G36*
G01*
X164000000Y-90125000D02*
X162750000Y-90125000D01*
G75*
G02*
X162500000Y-89875000I0J250000D01*
G01*
X162500000Y-89075000D01*
G75*
G02*
X162750000Y-88825000I250000J0D01*
G01*
X164000000Y-88825000D01*
G75*
G02*
X164250000Y-89075000I0J-250000D01*
G01*
X164250000Y-89875000D01*
G75*
G02*
X164000000Y-90125000I-250000J0D01*
G01*
G37*
%TD*%
%TO.C,R4*%
G36*
G01*
X131075000Y-91350000D02*
X129825000Y-91350000D01*
G75*
G02*
X129575000Y-91100000I0J250000D01*
G01*
X129575000Y-90300000D01*
G75*
G02*
X129825000Y-90050000I250000J0D01*
G01*
X131075000Y-90050000D01*
G75*
G02*
X131325000Y-90300000I0J-250000D01*
G01*
X131325000Y-91100000D01*
G75*
G02*
X131075000Y-91350000I-250000J0D01*
G01*
G37*
G36*
G01*
X131075000Y-94450000D02*
X129825000Y-94450000D01*
G75*
G02*
X129575000Y-94200000I0J250000D01*
G01*
X129575000Y-93400000D01*
G75*
G02*
X129825000Y-93150000I250000J0D01*
G01*
X131075000Y-93150000D01*
G75*
G02*
X131325000Y-93400000I0J-250000D01*
G01*
X131325000Y-94200000D01*
G75*
G02*
X131075000Y-94450000I-250000J0D01*
G01*
G37*
%TD*%
%TO.C,R3*%
G36*
G01*
X129825000Y-86150000D02*
X131075000Y-86150000D01*
G75*
G02*
X131325000Y-86400000I0J-250000D01*
G01*
X131325000Y-87200000D01*
G75*
G02*
X131075000Y-87450000I-250000J0D01*
G01*
X129825000Y-87450000D01*
G75*
G02*
X129575000Y-87200000I0J250000D01*
G01*
X129575000Y-86400000D01*
G75*
G02*
X129825000Y-86150000I250000J0D01*
G01*
G37*
G36*
G01*
X129825000Y-83050000D02*
X131075000Y-83050000D01*
G75*
G02*
X131325000Y-83300000I0J-250000D01*
G01*
X131325000Y-84100000D01*
G75*
G02*
X131075000Y-84350000I-250000J0D01*
G01*
X129825000Y-84350000D01*
G75*
G02*
X129575000Y-84100000I0J250000D01*
G01*
X129575000Y-83300000D01*
G75*
G02*
X129825000Y-83050000I250000J0D01*
G01*
G37*
%TD*%
%TO.C,R2*%
G36*
G01*
X127725000Y-91350000D02*
X126475000Y-91350000D01*
G75*
G02*
X126225000Y-91100000I0J250000D01*
G01*
X126225000Y-90300000D01*
G75*
G02*
X126475000Y-90050000I250000J0D01*
G01*
X127725000Y-90050000D01*
G75*
G02*
X127975000Y-90300000I0J-250000D01*
G01*
X127975000Y-91100000D01*
G75*
G02*
X127725000Y-91350000I-250000J0D01*
G01*
G37*
G36*
G01*
X127725000Y-94450000D02*
X126475000Y-94450000D01*
G75*
G02*
X126225000Y-94200000I0J250000D01*
G01*
X126225000Y-93400000D01*
G75*
G02*
X126475000Y-93150000I250000J0D01*
G01*
X127725000Y-93150000D01*
G75*
G02*
X127975000Y-93400000I0J-250000D01*
G01*
X127975000Y-94200000D01*
G75*
G02*
X127725000Y-94450000I-250000J0D01*
G01*
G37*
%TD*%
%TO.C,R1*%
G36*
G01*
X124425000Y-91350000D02*
X123175000Y-91350000D01*
G75*
G02*
X122925000Y-91100000I0J250000D01*
G01*
X122925000Y-90300000D01*
G75*
G02*
X123175000Y-90050000I250000J0D01*
G01*
X124425000Y-90050000D01*
G75*
G02*
X124675000Y-90300000I0J-250000D01*
G01*
X124675000Y-91100000D01*
G75*
G02*
X124425000Y-91350000I-250000J0D01*
G01*
G37*
G36*
G01*
X124425000Y-94450000D02*
X123175000Y-94450000D01*
G75*
G02*
X122925000Y-94200000I0J250000D01*
G01*
X122925000Y-93400000D01*
G75*
G02*
X123175000Y-93150000I250000J0D01*
G01*
X124425000Y-93150000D01*
G75*
G02*
X124675000Y-93400000I0J-250000D01*
G01*
X124675000Y-94200000D01*
G75*
G02*
X124425000Y-94450000I-250000J0D01*
G01*
G37*
%TD*%
D14*
%TO.C,J2*%
X149340000Y-91380000D03*
X146800000Y-91380000D03*
X149340000Y-88840000D03*
X146800000Y-88840000D03*
X149340000Y-86300000D03*
D15*
X146800000Y-86300000D03*
%TD*%
D16*
%TO.C,J1*%
X118500000Y-85600000D03*
X118500000Y-92600000D03*
X118500000Y-88100000D03*
X118500000Y-90100000D03*
D17*
X115900000Y-86850000D03*
X115900000Y-91350000D03*
D18*
X115900000Y-83400000D03*
X115900000Y-94800000D03*
%TD*%
%TO.C,D4*%
G36*
G01*
X153365000Y-88581600D02*
X153365000Y-89968400D01*
G75*
G02*
X153198400Y-90135000I-166600J0D01*
G01*
X152551600Y-90135000D01*
G75*
G02*
X152385000Y-89968400I0J166600D01*
G01*
X152385000Y-88581600D01*
G75*
G02*
X152551600Y-88415000I166600J0D01*
G01*
X153198400Y-88415000D01*
G75*
G02*
X153365000Y-88581600I0J-166600D01*
G01*
G37*
G36*
G01*
X156285000Y-88581600D02*
X156285000Y-89968400D01*
G75*
G02*
X156118400Y-90135000I-166600J0D01*
G01*
X155471600Y-90135000D01*
G75*
G02*
X155305000Y-89968400I0J166600D01*
G01*
X155305000Y-88581600D01*
G75*
G02*
X155471600Y-88415000I166600J0D01*
G01*
X156118400Y-88415000D01*
G75*
G02*
X156285000Y-88581600I0J-166600D01*
G01*
G37*
%TD*%
%TO.C,D3*%
G36*
G01*
X158440000Y-88581600D02*
X158440000Y-89968400D01*
G75*
G02*
X158273400Y-90135000I-166600J0D01*
G01*
X157626600Y-90135000D01*
G75*
G02*
X157460000Y-89968400I0J166600D01*
G01*
X157460000Y-88581600D01*
G75*
G02*
X157626600Y-88415000I166600J0D01*
G01*
X158273400Y-88415000D01*
G75*
G02*
X158440000Y-88581600I0J-166600D01*
G01*
G37*
G36*
G01*
X161360000Y-88581600D02*
X161360000Y-89968400D01*
G75*
G02*
X161193400Y-90135000I-166600J0D01*
G01*
X160546600Y-90135000D01*
G75*
G02*
X160380000Y-89968400I0J166600D01*
G01*
X160380000Y-88581600D01*
G75*
G02*
X160546600Y-88415000I166600J0D01*
G01*
X161193400Y-88415000D01*
G75*
G02*
X161360000Y-88581600I0J-166600D01*
G01*
G37*
%TD*%
%TO.C,C1*%
G36*
G01*
X159450000Y-87025001D02*
X159450000Y-85724999D01*
G75*
G02*
X159699999Y-85475000I249999J0D01*
G01*
X160525001Y-85475000D01*
G75*
G02*
X160775000Y-85724999I0J-249999D01*
G01*
X160775000Y-87025001D01*
G75*
G02*
X160525001Y-87275000I-249999J0D01*
G01*
X159699999Y-87275000D01*
G75*
G02*
X159450000Y-87025001I0J249999D01*
G01*
G37*
G36*
G01*
X156325000Y-87025001D02*
X156325000Y-85724999D01*
G75*
G02*
X156574999Y-85475000I249999J0D01*
G01*
X157400001Y-85475000D01*
G75*
G02*
X157650000Y-85724999I0J-249999D01*
G01*
X157650000Y-87025001D01*
G75*
G02*
X157400001Y-87275000I-249999J0D01*
G01*
X156574999Y-87275000D01*
G75*
G02*
X156325000Y-87025001I0J249999D01*
G01*
G37*
%TD*%
M02*
