%FSLAX45Y45*%
G04 Gerber Fmt 4.5, Leading zero omitted, Abs format (unit mm)*
G04 Created by KiCad (PCBNEW (5.1.10)-1) date 2022-01-25 20:11:52*
%MOMM*%
%LPD*%
G01*
G04 APERTURE LIST*
%TA.AperFunction,Profile*%
%ADD10C,0.500000*%
%TD*%
%ADD11C,0.200000*%
%ADD12C,0.300000*%
G04 APERTURE END LIST*
D10*
X16530000Y-9690000D02*
X16530000Y-8130000D01*
X11320000Y-9690000D02*
X16530000Y-9690000D01*
X11320000Y-9510000D02*
X11320000Y-9690000D01*
X11320000Y-8285000D02*
X11320000Y-9510000D01*
X11320000Y-8125000D02*
X16530000Y-8130000D01*
X11320000Y-8285000D02*
X11320000Y-8125000D01*
D11*
X12520000Y-9045000D02*
X12560000Y-9085000D01*
X12560000Y-9045000D02*
X12520000Y-9085000D01*
X12850000Y-8360000D02*
X12890000Y-8400000D01*
X12890000Y-8360000D02*
X12850000Y-8400000D01*
X13471500Y-8499000D02*
G75*
G03*
X13471500Y-8499000I-40000J0D01*
G01*
X13471500Y-8753000D02*
G75*
G03*
X13471500Y-8753000I-40000J0D01*
G01*
X13471500Y-9007000D02*
G75*
G03*
X13471500Y-9007000I-40000J0D01*
G01*
X13471500Y-9261000D02*
G75*
G03*
X13471500Y-9261000I-40000J0D01*
G01*
X14258500Y-8499000D02*
G75*
G03*
X14258500Y-8499000I-40000J0D01*
G01*
X14258500Y-8753000D02*
G75*
G03*
X14258500Y-8753000I-40000J0D01*
G01*
X14258500Y-9007000D02*
G75*
G03*
X14258500Y-9007000I-40000J0D01*
G01*
X14258500Y-9261000D02*
G75*
G03*
X14258500Y-9261000I-40000J0D01*
G01*
X11590000Y-8290000D02*
X11590000Y-8390000D01*
X11540000Y-8340000D02*
X11640000Y-8340000D01*
X11665000Y-8300000D02*
X11515000Y-8300000D01*
X11665000Y-8380000D02*
X11515000Y-8380000D01*
X11515000Y-8300000D02*
G75*
G03*
X11515000Y-8380000I0J-40000D01*
G01*
X11665000Y-8380000D02*
G75*
G03*
X11665000Y-8300000I0J40000D01*
G01*
X11590000Y-9430000D02*
X11590000Y-9530000D01*
X11540000Y-9480000D02*
X11640000Y-9480000D01*
X11665000Y-9440000D02*
X11515000Y-9440000D01*
X11665000Y-9520000D02*
X11515000Y-9520000D01*
X11515000Y-9440000D02*
G75*
G03*
X11515000Y-9520000I0J-40000D01*
G01*
X11665000Y-9520000D02*
G75*
G03*
X11665000Y-9440000I0J40000D01*
G01*
X14680000Y-8580000D02*
X14680000Y-8680000D01*
X14630000Y-8630000D02*
X14730000Y-8630000D01*
X14680000Y-8834000D02*
X14680000Y-8934000D01*
X14630000Y-8884000D02*
X14730000Y-8884000D01*
X14680000Y-9088000D02*
X14680000Y-9188000D01*
X14630000Y-9138000D02*
X14730000Y-9138000D01*
X14934000Y-8580000D02*
X14934000Y-8680000D01*
X14884000Y-8630000D02*
X14984000Y-8630000D01*
X14934000Y-8834000D02*
X14934000Y-8934000D01*
X14884000Y-8884000D02*
X14984000Y-8884000D01*
X14934000Y-9088000D02*
X14934000Y-9188000D01*
X14884000Y-9138000D02*
X14984000Y-9138000D01*
D12*
X11581428Y-10180714D02*
X11581428Y-9880714D01*
X11652857Y-9880714D01*
X11695714Y-9895000D01*
X11724286Y-9923572D01*
X11738571Y-9952143D01*
X11752857Y-10009286D01*
X11752857Y-10052143D01*
X11738571Y-10109286D01*
X11724286Y-10137857D01*
X11695714Y-10166429D01*
X11652857Y-10180714D01*
X11581428Y-10180714D01*
X11881428Y-10180714D02*
X11881428Y-9980714D01*
X11881428Y-10037857D02*
X11895714Y-10009286D01*
X11910000Y-9995000D01*
X11938571Y-9980714D01*
X11967143Y-9980714D01*
X12067143Y-10180714D02*
X12067143Y-9980714D01*
X12067143Y-9880714D02*
X12052857Y-9895000D01*
X12067143Y-9909286D01*
X12081428Y-9895000D01*
X12067143Y-9880714D01*
X12067143Y-9909286D01*
X12252857Y-10180714D02*
X12224286Y-10166429D01*
X12210000Y-10137857D01*
X12210000Y-9880714D01*
X12410000Y-10180714D02*
X12381428Y-10166429D01*
X12367143Y-10137857D01*
X12367143Y-9880714D01*
X12752857Y-10180714D02*
X12752857Y-9880714D01*
X12852857Y-10095000D01*
X12952857Y-9880714D01*
X12952857Y-10180714D01*
X13224286Y-10180714D02*
X13224286Y-10023572D01*
X13210000Y-9995000D01*
X13181428Y-9980714D01*
X13124286Y-9980714D01*
X13095714Y-9995000D01*
X13224286Y-10166429D02*
X13195714Y-10180714D01*
X13124286Y-10180714D01*
X13095714Y-10166429D01*
X13081428Y-10137857D01*
X13081428Y-10109286D01*
X13095714Y-10080714D01*
X13124286Y-10066429D01*
X13195714Y-10066429D01*
X13224286Y-10052143D01*
X13367143Y-9980714D02*
X13367143Y-10280714D01*
X13367143Y-9995000D02*
X13395714Y-9980714D01*
X13452857Y-9980714D01*
X13481428Y-9995000D01*
X13495714Y-10009286D01*
X13510000Y-10037857D01*
X13510000Y-10123572D01*
X13495714Y-10152143D01*
X13481428Y-10166429D01*
X13452857Y-10180714D01*
X13395714Y-10180714D01*
X13367143Y-10166429D01*
X13638571Y-10152143D02*
X13652857Y-10166429D01*
X13638571Y-10180714D01*
X13624286Y-10166429D01*
X13638571Y-10152143D01*
X13638571Y-10180714D01*
X13638571Y-9995000D02*
X13652857Y-10009286D01*
X13638571Y-10023572D01*
X13624286Y-10009286D01*
X13638571Y-9995000D01*
X13638571Y-10023572D01*
X11255000Y-10655000D02*
X11295000Y-10695000D01*
X11295000Y-10655000D02*
X11255000Y-10695000D01*
X11638571Y-10510714D02*
X11667143Y-10510714D01*
X11695714Y-10525000D01*
X11710000Y-10539286D01*
X11724286Y-10567857D01*
X11738571Y-10625000D01*
X11738571Y-10696429D01*
X11724286Y-10753572D01*
X11710000Y-10782143D01*
X11695714Y-10796429D01*
X11667143Y-10810714D01*
X11638571Y-10810714D01*
X11610000Y-10796429D01*
X11595714Y-10782143D01*
X11581428Y-10753572D01*
X11567143Y-10696429D01*
X11567143Y-10625000D01*
X11581428Y-10567857D01*
X11595714Y-10539286D01*
X11610000Y-10525000D01*
X11638571Y-10510714D01*
X11867143Y-10782143D02*
X11881428Y-10796429D01*
X11867143Y-10810714D01*
X11852857Y-10796429D01*
X11867143Y-10782143D01*
X11867143Y-10810714D01*
X12138571Y-10610714D02*
X12138571Y-10810714D01*
X12067143Y-10496429D02*
X11995714Y-10710714D01*
X12181428Y-10710714D01*
X12352857Y-10510714D02*
X12381428Y-10510714D01*
X12410000Y-10525000D01*
X12424286Y-10539286D01*
X12438571Y-10567857D01*
X12452857Y-10625000D01*
X12452857Y-10696429D01*
X12438571Y-10753572D01*
X12424286Y-10782143D01*
X12410000Y-10796429D01*
X12381428Y-10810714D01*
X12352857Y-10810714D01*
X12324286Y-10796429D01*
X12310000Y-10782143D01*
X12295714Y-10753572D01*
X12281428Y-10696429D01*
X12281428Y-10625000D01*
X12295714Y-10567857D01*
X12310000Y-10539286D01*
X12324286Y-10525000D01*
X12352857Y-10510714D01*
X12638571Y-10510714D02*
X12667143Y-10510714D01*
X12695714Y-10525000D01*
X12710000Y-10539286D01*
X12724286Y-10567857D01*
X12738571Y-10625000D01*
X12738571Y-10696429D01*
X12724286Y-10753572D01*
X12710000Y-10782143D01*
X12695714Y-10796429D01*
X12667143Y-10810714D01*
X12638571Y-10810714D01*
X12610000Y-10796429D01*
X12595714Y-10782143D01*
X12581428Y-10753572D01*
X12567143Y-10696429D01*
X12567143Y-10625000D01*
X12581428Y-10567857D01*
X12595714Y-10539286D01*
X12610000Y-10525000D01*
X12638571Y-10510714D01*
X12867143Y-10810714D02*
X12867143Y-10610714D01*
X12867143Y-10639286D02*
X12881428Y-10625000D01*
X12910000Y-10610714D01*
X12952857Y-10610714D01*
X12981428Y-10625000D01*
X12995714Y-10653572D01*
X12995714Y-10810714D01*
X12995714Y-10653572D02*
X13010000Y-10625000D01*
X13038571Y-10610714D01*
X13081428Y-10610714D01*
X13110000Y-10625000D01*
X13124286Y-10653572D01*
X13124286Y-10810714D01*
X13267143Y-10810714D02*
X13267143Y-10610714D01*
X13267143Y-10639286D02*
X13281428Y-10625000D01*
X13310000Y-10610714D01*
X13352857Y-10610714D01*
X13381428Y-10625000D01*
X13395714Y-10653572D01*
X13395714Y-10810714D01*
X13395714Y-10653572D02*
X13410000Y-10625000D01*
X13438571Y-10610714D01*
X13481428Y-10610714D01*
X13510000Y-10625000D01*
X13524286Y-10653572D01*
X13524286Y-10810714D01*
X14110000Y-10496429D02*
X13852857Y-10882143D01*
X14495714Y-10510714D02*
X14524286Y-10510714D01*
X14552857Y-10525000D01*
X14567143Y-10539286D01*
X14581428Y-10567857D01*
X14595714Y-10625000D01*
X14595714Y-10696429D01*
X14581428Y-10753572D01*
X14567143Y-10782143D01*
X14552857Y-10796429D01*
X14524286Y-10810714D01*
X14495714Y-10810714D01*
X14467143Y-10796429D01*
X14452857Y-10782143D01*
X14438571Y-10753572D01*
X14424286Y-10696429D01*
X14424286Y-10625000D01*
X14438571Y-10567857D01*
X14452857Y-10539286D01*
X14467143Y-10525000D01*
X14495714Y-10510714D01*
X14724286Y-10782143D02*
X14738571Y-10796429D01*
X14724286Y-10810714D01*
X14710000Y-10796429D01*
X14724286Y-10782143D01*
X14724286Y-10810714D01*
X14924286Y-10510714D02*
X14952857Y-10510714D01*
X14981428Y-10525000D01*
X14995714Y-10539286D01*
X15010000Y-10567857D01*
X15024286Y-10625000D01*
X15024286Y-10696429D01*
X15010000Y-10753572D01*
X14995714Y-10782143D01*
X14981428Y-10796429D01*
X14952857Y-10810714D01*
X14924286Y-10810714D01*
X14895714Y-10796429D01*
X14881428Y-10782143D01*
X14867143Y-10753572D01*
X14852857Y-10696429D01*
X14852857Y-10625000D01*
X14867143Y-10567857D01*
X14881428Y-10539286D01*
X14895714Y-10525000D01*
X14924286Y-10510714D01*
X15310000Y-10810714D02*
X15138571Y-10810714D01*
X15224286Y-10810714D02*
X15224286Y-10510714D01*
X15195714Y-10553572D01*
X15167143Y-10582143D01*
X15138571Y-10596429D01*
X15581428Y-10510714D02*
X15438571Y-10510714D01*
X15424286Y-10653572D01*
X15438571Y-10639286D01*
X15467143Y-10625000D01*
X15538571Y-10625000D01*
X15567143Y-10639286D01*
X15581428Y-10653572D01*
X15595714Y-10682143D01*
X15595714Y-10753572D01*
X15581428Y-10782143D01*
X15567143Y-10796429D01*
X15538571Y-10810714D01*
X15467143Y-10810714D01*
X15438571Y-10796429D01*
X15424286Y-10782143D01*
X15695714Y-10510714D02*
X15895714Y-10510714D01*
X15767143Y-10810714D01*
X15995714Y-10510714D02*
X15995714Y-10567857D01*
X16110000Y-10510714D02*
X16110000Y-10567857D01*
X16552857Y-10925000D02*
X16538571Y-10910714D01*
X16510000Y-10867857D01*
X16495714Y-10839286D01*
X16481428Y-10796429D01*
X16467143Y-10725000D01*
X16467143Y-10667857D01*
X16481428Y-10596429D01*
X16495714Y-10553572D01*
X16510000Y-10525000D01*
X16538571Y-10482143D01*
X16552857Y-10467857D01*
X16652857Y-10539286D02*
X16667143Y-10525000D01*
X16695714Y-10510714D01*
X16767143Y-10510714D01*
X16795714Y-10525000D01*
X16810000Y-10539286D01*
X16824286Y-10567857D01*
X16824286Y-10596429D01*
X16810000Y-10639286D01*
X16638571Y-10810714D01*
X16824286Y-10810714D01*
X17181428Y-10810714D02*
X17181428Y-10510714D01*
X17310000Y-10810714D02*
X17310000Y-10653572D01*
X17295714Y-10625000D01*
X17267143Y-10610714D01*
X17224286Y-10610714D01*
X17195714Y-10625000D01*
X17181428Y-10639286D01*
X17495714Y-10810714D02*
X17467143Y-10796429D01*
X17452857Y-10782143D01*
X17438571Y-10753572D01*
X17438571Y-10667857D01*
X17452857Y-10639286D01*
X17467143Y-10625000D01*
X17495714Y-10610714D01*
X17538571Y-10610714D01*
X17567143Y-10625000D01*
X17581428Y-10639286D01*
X17595714Y-10667857D01*
X17595714Y-10753572D01*
X17581428Y-10782143D01*
X17567143Y-10796429D01*
X17538571Y-10810714D01*
X17495714Y-10810714D01*
X17767143Y-10810714D02*
X17738571Y-10796429D01*
X17724286Y-10767857D01*
X17724286Y-10510714D01*
X17995714Y-10796429D02*
X17967143Y-10810714D01*
X17910000Y-10810714D01*
X17881428Y-10796429D01*
X17867143Y-10767857D01*
X17867143Y-10653572D01*
X17881428Y-10625000D01*
X17910000Y-10610714D01*
X17967143Y-10610714D01*
X17995714Y-10625000D01*
X18010000Y-10653572D01*
X18010000Y-10682143D01*
X17867143Y-10710714D01*
X18124286Y-10796429D02*
X18152857Y-10810714D01*
X18210000Y-10810714D01*
X18238571Y-10796429D01*
X18252857Y-10767857D01*
X18252857Y-10753572D01*
X18238571Y-10725000D01*
X18210000Y-10710714D01*
X18167143Y-10710714D01*
X18138571Y-10696429D01*
X18124286Y-10667857D01*
X18124286Y-10653572D01*
X18138571Y-10625000D01*
X18167143Y-10610714D01*
X18210000Y-10610714D01*
X18238571Y-10625000D01*
X18352857Y-10925000D02*
X18367143Y-10910714D01*
X18395714Y-10867857D01*
X18410000Y-10839286D01*
X18424286Y-10796429D01*
X18438571Y-10725000D01*
X18438571Y-10667857D01*
X18424286Y-10596429D01*
X18410000Y-10553572D01*
X18395714Y-10525000D01*
X18367143Y-10482143D01*
X18352857Y-10467857D01*
X11295000Y-11071000D02*
G75*
G03*
X11295000Y-11071000I-40000J0D01*
G01*
X11638571Y-10906714D02*
X11667143Y-10906714D01*
X11695714Y-10921000D01*
X11710000Y-10935286D01*
X11724286Y-10963857D01*
X11738571Y-11021000D01*
X11738571Y-11092429D01*
X11724286Y-11149572D01*
X11710000Y-11178143D01*
X11695714Y-11192429D01*
X11667143Y-11206714D01*
X11638571Y-11206714D01*
X11610000Y-11192429D01*
X11595714Y-11178143D01*
X11581428Y-11149572D01*
X11567143Y-11092429D01*
X11567143Y-11021000D01*
X11581428Y-10963857D01*
X11595714Y-10935286D01*
X11610000Y-10921000D01*
X11638571Y-10906714D01*
X11867143Y-11178143D02*
X11881428Y-11192429D01*
X11867143Y-11206714D01*
X11852857Y-11192429D01*
X11867143Y-11178143D01*
X11867143Y-11206714D01*
X12052857Y-11035286D02*
X12024286Y-11021000D01*
X12010000Y-11006714D01*
X11995714Y-10978143D01*
X11995714Y-10963857D01*
X12010000Y-10935286D01*
X12024286Y-10921000D01*
X12052857Y-10906714D01*
X12110000Y-10906714D01*
X12138571Y-10921000D01*
X12152857Y-10935286D01*
X12167143Y-10963857D01*
X12167143Y-10978143D01*
X12152857Y-11006714D01*
X12138571Y-11021000D01*
X12110000Y-11035286D01*
X12052857Y-11035286D01*
X12024286Y-11049572D01*
X12010000Y-11063857D01*
X11995714Y-11092429D01*
X11995714Y-11149572D01*
X12010000Y-11178143D01*
X12024286Y-11192429D01*
X12052857Y-11206714D01*
X12110000Y-11206714D01*
X12138571Y-11192429D01*
X12152857Y-11178143D01*
X12167143Y-11149572D01*
X12167143Y-11092429D01*
X12152857Y-11063857D01*
X12138571Y-11049572D01*
X12110000Y-11035286D01*
X12352857Y-10906714D02*
X12381428Y-10906714D01*
X12410000Y-10921000D01*
X12424286Y-10935286D01*
X12438571Y-10963857D01*
X12452857Y-11021000D01*
X12452857Y-11092429D01*
X12438571Y-11149572D01*
X12424286Y-11178143D01*
X12410000Y-11192429D01*
X12381428Y-11206714D01*
X12352857Y-11206714D01*
X12324286Y-11192429D01*
X12310000Y-11178143D01*
X12295714Y-11149572D01*
X12281428Y-11092429D01*
X12281428Y-11021000D01*
X12295714Y-10963857D01*
X12310000Y-10935286D01*
X12324286Y-10921000D01*
X12352857Y-10906714D01*
X12638571Y-10906714D02*
X12667143Y-10906714D01*
X12695714Y-10921000D01*
X12710000Y-10935286D01*
X12724286Y-10963857D01*
X12738571Y-11021000D01*
X12738571Y-11092429D01*
X12724286Y-11149572D01*
X12710000Y-11178143D01*
X12695714Y-11192429D01*
X12667143Y-11206714D01*
X12638571Y-11206714D01*
X12610000Y-11192429D01*
X12595714Y-11178143D01*
X12581428Y-11149572D01*
X12567143Y-11092429D01*
X12567143Y-11021000D01*
X12581428Y-10963857D01*
X12595714Y-10935286D01*
X12610000Y-10921000D01*
X12638571Y-10906714D01*
X12867143Y-11206714D02*
X12867143Y-11006714D01*
X12867143Y-11035286D02*
X12881428Y-11021000D01*
X12910000Y-11006714D01*
X12952857Y-11006714D01*
X12981428Y-11021000D01*
X12995714Y-11049572D01*
X12995714Y-11206714D01*
X12995714Y-11049572D02*
X13010000Y-11021000D01*
X13038571Y-11006714D01*
X13081428Y-11006714D01*
X13110000Y-11021000D01*
X13124286Y-11049572D01*
X13124286Y-11206714D01*
X13267143Y-11206714D02*
X13267143Y-11006714D01*
X13267143Y-11035286D02*
X13281428Y-11021000D01*
X13310000Y-11006714D01*
X13352857Y-11006714D01*
X13381428Y-11021000D01*
X13395714Y-11049572D01*
X13395714Y-11206714D01*
X13395714Y-11049572D02*
X13410000Y-11021000D01*
X13438571Y-11006714D01*
X13481428Y-11006714D01*
X13510000Y-11021000D01*
X13524286Y-11049572D01*
X13524286Y-11206714D01*
X14110000Y-10892429D02*
X13852857Y-11278143D01*
X14495714Y-10906714D02*
X14524286Y-10906714D01*
X14552857Y-10921000D01*
X14567143Y-10935286D01*
X14581428Y-10963857D01*
X14595714Y-11021000D01*
X14595714Y-11092429D01*
X14581428Y-11149572D01*
X14567143Y-11178143D01*
X14552857Y-11192429D01*
X14524286Y-11206714D01*
X14495714Y-11206714D01*
X14467143Y-11192429D01*
X14452857Y-11178143D01*
X14438571Y-11149572D01*
X14424286Y-11092429D01*
X14424286Y-11021000D01*
X14438571Y-10963857D01*
X14452857Y-10935286D01*
X14467143Y-10921000D01*
X14495714Y-10906714D01*
X14724286Y-11178143D02*
X14738571Y-11192429D01*
X14724286Y-11206714D01*
X14710000Y-11192429D01*
X14724286Y-11178143D01*
X14724286Y-11206714D01*
X14924286Y-10906714D02*
X14952857Y-10906714D01*
X14981428Y-10921000D01*
X14995714Y-10935286D01*
X15010000Y-10963857D01*
X15024286Y-11021000D01*
X15024286Y-11092429D01*
X15010000Y-11149572D01*
X14995714Y-11178143D01*
X14981428Y-11192429D01*
X14952857Y-11206714D01*
X14924286Y-11206714D01*
X14895714Y-11192429D01*
X14881428Y-11178143D01*
X14867143Y-11149572D01*
X14852857Y-11092429D01*
X14852857Y-11021000D01*
X14867143Y-10963857D01*
X14881428Y-10935286D01*
X14895714Y-10921000D01*
X14924286Y-10906714D01*
X15124286Y-10906714D02*
X15310000Y-10906714D01*
X15210000Y-11021000D01*
X15252857Y-11021000D01*
X15281428Y-11035286D01*
X15295714Y-11049572D01*
X15310000Y-11078143D01*
X15310000Y-11149572D01*
X15295714Y-11178143D01*
X15281428Y-11192429D01*
X15252857Y-11206714D01*
X15167143Y-11206714D01*
X15138571Y-11192429D01*
X15124286Y-11178143D01*
X15595714Y-11206714D02*
X15424286Y-11206714D01*
X15510000Y-11206714D02*
X15510000Y-10906714D01*
X15481428Y-10949572D01*
X15452857Y-10978143D01*
X15424286Y-10992429D01*
X15867143Y-10906714D02*
X15724286Y-10906714D01*
X15710000Y-11049572D01*
X15724286Y-11035286D01*
X15752857Y-11021000D01*
X15824286Y-11021000D01*
X15852857Y-11035286D01*
X15867143Y-11049572D01*
X15881428Y-11078143D01*
X15881428Y-11149572D01*
X15867143Y-11178143D01*
X15852857Y-11192429D01*
X15824286Y-11206714D01*
X15752857Y-11206714D01*
X15724286Y-11192429D01*
X15710000Y-11178143D01*
X15995714Y-10906714D02*
X15995714Y-10963857D01*
X16110000Y-10906714D02*
X16110000Y-10963857D01*
X16552857Y-11321000D02*
X16538571Y-11306714D01*
X16510000Y-11263857D01*
X16495714Y-11235286D01*
X16481428Y-11192429D01*
X16467143Y-11121000D01*
X16467143Y-11063857D01*
X16481428Y-10992429D01*
X16495714Y-10949572D01*
X16510000Y-10921000D01*
X16538571Y-10878143D01*
X16552857Y-10863857D01*
X16710000Y-11035286D02*
X16681428Y-11021000D01*
X16667143Y-11006714D01*
X16652857Y-10978143D01*
X16652857Y-10963857D01*
X16667143Y-10935286D01*
X16681428Y-10921000D01*
X16710000Y-10906714D01*
X16767143Y-10906714D01*
X16795714Y-10921000D01*
X16810000Y-10935286D01*
X16824286Y-10963857D01*
X16824286Y-10978143D01*
X16810000Y-11006714D01*
X16795714Y-11021000D01*
X16767143Y-11035286D01*
X16710000Y-11035286D01*
X16681428Y-11049572D01*
X16667143Y-11063857D01*
X16652857Y-11092429D01*
X16652857Y-11149572D01*
X16667143Y-11178143D01*
X16681428Y-11192429D01*
X16710000Y-11206714D01*
X16767143Y-11206714D01*
X16795714Y-11192429D01*
X16810000Y-11178143D01*
X16824286Y-11149572D01*
X16824286Y-11092429D01*
X16810000Y-11063857D01*
X16795714Y-11049572D01*
X16767143Y-11035286D01*
X17181428Y-11206714D02*
X17181428Y-10906714D01*
X17310000Y-11206714D02*
X17310000Y-11049572D01*
X17295714Y-11021000D01*
X17267143Y-11006714D01*
X17224286Y-11006714D01*
X17195714Y-11021000D01*
X17181428Y-11035286D01*
X17495714Y-11206714D02*
X17467143Y-11192429D01*
X17452857Y-11178143D01*
X17438571Y-11149572D01*
X17438571Y-11063857D01*
X17452857Y-11035286D01*
X17467143Y-11021000D01*
X17495714Y-11006714D01*
X17538571Y-11006714D01*
X17567143Y-11021000D01*
X17581428Y-11035286D01*
X17595714Y-11063857D01*
X17595714Y-11149572D01*
X17581428Y-11178143D01*
X17567143Y-11192429D01*
X17538571Y-11206714D01*
X17495714Y-11206714D01*
X17767143Y-11206714D02*
X17738571Y-11192429D01*
X17724286Y-11163857D01*
X17724286Y-10906714D01*
X17995714Y-11192429D02*
X17967143Y-11206714D01*
X17910000Y-11206714D01*
X17881428Y-11192429D01*
X17867143Y-11163857D01*
X17867143Y-11049572D01*
X17881428Y-11021000D01*
X17910000Y-11006714D01*
X17967143Y-11006714D01*
X17995714Y-11021000D01*
X18010000Y-11049572D01*
X18010000Y-11078143D01*
X17867143Y-11106714D01*
X18124286Y-11192429D02*
X18152857Y-11206714D01*
X18210000Y-11206714D01*
X18238571Y-11192429D01*
X18252857Y-11163857D01*
X18252857Y-11149572D01*
X18238571Y-11121000D01*
X18210000Y-11106714D01*
X18167143Y-11106714D01*
X18138571Y-11092429D01*
X18124286Y-11063857D01*
X18124286Y-11049572D01*
X18138571Y-11021000D01*
X18167143Y-11006714D01*
X18210000Y-11006714D01*
X18238571Y-11021000D01*
X18352857Y-11321000D02*
X18367143Y-11306714D01*
X18395714Y-11263857D01*
X18410000Y-11235286D01*
X18424286Y-11192429D01*
X18438571Y-11121000D01*
X18438571Y-11063857D01*
X18424286Y-10992429D01*
X18410000Y-10949572D01*
X18395714Y-10921000D01*
X18367143Y-10878143D01*
X18352857Y-10863857D01*
X11245000Y-11417000D02*
X11245000Y-11517000D01*
X11195000Y-11467000D02*
X11295000Y-11467000D01*
X11738571Y-11602714D02*
X11567143Y-11602714D01*
X11652857Y-11602714D02*
X11652857Y-11302714D01*
X11624286Y-11345571D01*
X11595714Y-11374143D01*
X11567143Y-11388429D01*
X11867143Y-11574143D02*
X11881428Y-11588429D01*
X11867143Y-11602714D01*
X11852857Y-11588429D01*
X11867143Y-11574143D01*
X11867143Y-11602714D01*
X12067143Y-11302714D02*
X12095714Y-11302714D01*
X12124286Y-11317000D01*
X12138571Y-11331286D01*
X12152857Y-11359857D01*
X12167143Y-11417000D01*
X12167143Y-11488429D01*
X12152857Y-11545571D01*
X12138571Y-11574143D01*
X12124286Y-11588429D01*
X12095714Y-11602714D01*
X12067143Y-11602714D01*
X12038571Y-11588429D01*
X12024286Y-11574143D01*
X12010000Y-11545571D01*
X11995714Y-11488429D01*
X11995714Y-11417000D01*
X12010000Y-11359857D01*
X12024286Y-11331286D01*
X12038571Y-11317000D01*
X12067143Y-11302714D01*
X12352857Y-11302714D02*
X12381428Y-11302714D01*
X12410000Y-11317000D01*
X12424286Y-11331286D01*
X12438571Y-11359857D01*
X12452857Y-11417000D01*
X12452857Y-11488429D01*
X12438571Y-11545571D01*
X12424286Y-11574143D01*
X12410000Y-11588429D01*
X12381428Y-11602714D01*
X12352857Y-11602714D01*
X12324286Y-11588429D01*
X12310000Y-11574143D01*
X12295714Y-11545571D01*
X12281428Y-11488429D01*
X12281428Y-11417000D01*
X12295714Y-11359857D01*
X12310000Y-11331286D01*
X12324286Y-11317000D01*
X12352857Y-11302714D01*
X12638571Y-11302714D02*
X12667143Y-11302714D01*
X12695714Y-11317000D01*
X12710000Y-11331286D01*
X12724286Y-11359857D01*
X12738571Y-11417000D01*
X12738571Y-11488429D01*
X12724286Y-11545571D01*
X12710000Y-11574143D01*
X12695714Y-11588429D01*
X12667143Y-11602714D01*
X12638571Y-11602714D01*
X12610000Y-11588429D01*
X12595714Y-11574143D01*
X12581428Y-11545571D01*
X12567143Y-11488429D01*
X12567143Y-11417000D01*
X12581428Y-11359857D01*
X12595714Y-11331286D01*
X12610000Y-11317000D01*
X12638571Y-11302714D01*
X12867143Y-11602714D02*
X12867143Y-11402714D01*
X12867143Y-11431286D02*
X12881428Y-11417000D01*
X12910000Y-11402714D01*
X12952857Y-11402714D01*
X12981428Y-11417000D01*
X12995714Y-11445571D01*
X12995714Y-11602714D01*
X12995714Y-11445571D02*
X13010000Y-11417000D01*
X13038571Y-11402714D01*
X13081428Y-11402714D01*
X13110000Y-11417000D01*
X13124286Y-11445571D01*
X13124286Y-11602714D01*
X13267143Y-11602714D02*
X13267143Y-11402714D01*
X13267143Y-11431286D02*
X13281428Y-11417000D01*
X13310000Y-11402714D01*
X13352857Y-11402714D01*
X13381428Y-11417000D01*
X13395714Y-11445571D01*
X13395714Y-11602714D01*
X13395714Y-11445571D02*
X13410000Y-11417000D01*
X13438571Y-11402714D01*
X13481428Y-11402714D01*
X13510000Y-11417000D01*
X13524286Y-11445571D01*
X13524286Y-11602714D01*
X14110000Y-11288429D02*
X13852857Y-11674143D01*
X14495714Y-11302714D02*
X14524286Y-11302714D01*
X14552857Y-11317000D01*
X14567143Y-11331286D01*
X14581428Y-11359857D01*
X14595714Y-11417000D01*
X14595714Y-11488429D01*
X14581428Y-11545571D01*
X14567143Y-11574143D01*
X14552857Y-11588429D01*
X14524286Y-11602714D01*
X14495714Y-11602714D01*
X14467143Y-11588429D01*
X14452857Y-11574143D01*
X14438571Y-11545571D01*
X14424286Y-11488429D01*
X14424286Y-11417000D01*
X14438571Y-11359857D01*
X14452857Y-11331286D01*
X14467143Y-11317000D01*
X14495714Y-11302714D01*
X14724286Y-11574143D02*
X14738571Y-11588429D01*
X14724286Y-11602714D01*
X14710000Y-11588429D01*
X14724286Y-11574143D01*
X14724286Y-11602714D01*
X14924286Y-11302714D02*
X14952857Y-11302714D01*
X14981428Y-11317000D01*
X14995714Y-11331286D01*
X15010000Y-11359857D01*
X15024286Y-11417000D01*
X15024286Y-11488429D01*
X15010000Y-11545571D01*
X14995714Y-11574143D01*
X14981428Y-11588429D01*
X14952857Y-11602714D01*
X14924286Y-11602714D01*
X14895714Y-11588429D01*
X14881428Y-11574143D01*
X14867143Y-11545571D01*
X14852857Y-11488429D01*
X14852857Y-11417000D01*
X14867143Y-11359857D01*
X14881428Y-11331286D01*
X14895714Y-11317000D01*
X14924286Y-11302714D01*
X15124286Y-11302714D02*
X15310000Y-11302714D01*
X15210000Y-11417000D01*
X15252857Y-11417000D01*
X15281428Y-11431286D01*
X15295714Y-11445571D01*
X15310000Y-11474143D01*
X15310000Y-11545571D01*
X15295714Y-11574143D01*
X15281428Y-11588429D01*
X15252857Y-11602714D01*
X15167143Y-11602714D01*
X15138571Y-11588429D01*
X15124286Y-11574143D01*
X15452857Y-11602714D02*
X15510000Y-11602714D01*
X15538571Y-11588429D01*
X15552857Y-11574143D01*
X15581428Y-11531286D01*
X15595714Y-11474143D01*
X15595714Y-11359857D01*
X15581428Y-11331286D01*
X15567143Y-11317000D01*
X15538571Y-11302714D01*
X15481428Y-11302714D01*
X15452857Y-11317000D01*
X15438571Y-11331286D01*
X15424286Y-11359857D01*
X15424286Y-11431286D01*
X15438571Y-11459857D01*
X15452857Y-11474143D01*
X15481428Y-11488429D01*
X15538571Y-11488429D01*
X15567143Y-11474143D01*
X15581428Y-11459857D01*
X15595714Y-11431286D01*
X15852857Y-11402714D02*
X15852857Y-11602714D01*
X15781428Y-11288429D02*
X15710000Y-11502714D01*
X15895714Y-11502714D01*
X15995714Y-11302714D02*
X15995714Y-11359857D01*
X16110000Y-11302714D02*
X16110000Y-11359857D01*
X16552857Y-11717000D02*
X16538571Y-11702714D01*
X16510000Y-11659857D01*
X16495714Y-11631286D01*
X16481428Y-11588429D01*
X16467143Y-11517000D01*
X16467143Y-11459857D01*
X16481428Y-11388429D01*
X16495714Y-11345571D01*
X16510000Y-11317000D01*
X16538571Y-11274143D01*
X16552857Y-11259857D01*
X16795714Y-11302714D02*
X16738571Y-11302714D01*
X16710000Y-11317000D01*
X16695714Y-11331286D01*
X16667143Y-11374143D01*
X16652857Y-11431286D01*
X16652857Y-11545571D01*
X16667143Y-11574143D01*
X16681428Y-11588429D01*
X16710000Y-11602714D01*
X16767143Y-11602714D01*
X16795714Y-11588429D01*
X16810000Y-11574143D01*
X16824286Y-11545571D01*
X16824286Y-11474143D01*
X16810000Y-11445571D01*
X16795714Y-11431286D01*
X16767143Y-11417000D01*
X16710000Y-11417000D01*
X16681428Y-11431286D01*
X16667143Y-11445571D01*
X16652857Y-11474143D01*
X17181428Y-11602714D02*
X17181428Y-11302714D01*
X17310000Y-11602714D02*
X17310000Y-11445571D01*
X17295714Y-11417000D01*
X17267143Y-11402714D01*
X17224286Y-11402714D01*
X17195714Y-11417000D01*
X17181428Y-11431286D01*
X17495714Y-11602714D02*
X17467143Y-11588429D01*
X17452857Y-11574143D01*
X17438571Y-11545571D01*
X17438571Y-11459857D01*
X17452857Y-11431286D01*
X17467143Y-11417000D01*
X17495714Y-11402714D01*
X17538571Y-11402714D01*
X17567143Y-11417000D01*
X17581428Y-11431286D01*
X17595714Y-11459857D01*
X17595714Y-11545571D01*
X17581428Y-11574143D01*
X17567143Y-11588429D01*
X17538571Y-11602714D01*
X17495714Y-11602714D01*
X17767143Y-11602714D02*
X17738571Y-11588429D01*
X17724286Y-11559857D01*
X17724286Y-11302714D01*
X17995714Y-11588429D02*
X17967143Y-11602714D01*
X17910000Y-11602714D01*
X17881428Y-11588429D01*
X17867143Y-11559857D01*
X17867143Y-11445571D01*
X17881428Y-11417000D01*
X17910000Y-11402714D01*
X17967143Y-11402714D01*
X17995714Y-11417000D01*
X18010000Y-11445571D01*
X18010000Y-11474143D01*
X17867143Y-11502714D01*
X18124286Y-11588429D02*
X18152857Y-11602714D01*
X18210000Y-11602714D01*
X18238571Y-11588429D01*
X18252857Y-11559857D01*
X18252857Y-11545571D01*
X18238571Y-11517000D01*
X18210000Y-11502714D01*
X18167143Y-11502714D01*
X18138571Y-11488429D01*
X18124286Y-11459857D01*
X18124286Y-11445571D01*
X18138571Y-11417000D01*
X18167143Y-11402714D01*
X18210000Y-11402714D01*
X18238571Y-11417000D01*
X18610000Y-11488429D02*
X18838571Y-11488429D01*
X18724286Y-11602714D02*
X18724286Y-11374143D01*
X19195714Y-11331286D02*
X19210000Y-11317000D01*
X19238571Y-11302714D01*
X19310000Y-11302714D01*
X19338571Y-11317000D01*
X19352857Y-11331286D01*
X19367143Y-11359857D01*
X19367143Y-11388429D01*
X19352857Y-11431286D01*
X19181428Y-11602714D01*
X19367143Y-11602714D01*
X19710000Y-11588429D02*
X19738571Y-11602714D01*
X19795714Y-11602714D01*
X19824286Y-11588429D01*
X19838571Y-11559857D01*
X19838571Y-11545571D01*
X19824286Y-11517000D01*
X19795714Y-11502714D01*
X19752857Y-11502714D01*
X19724286Y-11488429D01*
X19710000Y-11459857D01*
X19710000Y-11445571D01*
X19724286Y-11417000D01*
X19752857Y-11402714D01*
X19795714Y-11402714D01*
X19824286Y-11417000D01*
X20010000Y-11602714D02*
X19981428Y-11588429D01*
X19967143Y-11559857D01*
X19967143Y-11302714D01*
X20167143Y-11602714D02*
X20138571Y-11588429D01*
X20124286Y-11574143D01*
X20110000Y-11545571D01*
X20110000Y-11459857D01*
X20124286Y-11431286D01*
X20138571Y-11417000D01*
X20167143Y-11402714D01*
X20210000Y-11402714D01*
X20238571Y-11417000D01*
X20252857Y-11431286D01*
X20267143Y-11459857D01*
X20267143Y-11545571D01*
X20252857Y-11574143D01*
X20238571Y-11588429D01*
X20210000Y-11602714D01*
X20167143Y-11602714D01*
X20352857Y-11402714D02*
X20467143Y-11402714D01*
X20395714Y-11302714D02*
X20395714Y-11559857D01*
X20410000Y-11588429D01*
X20438571Y-11602714D01*
X20467143Y-11602714D01*
X20552857Y-11588429D02*
X20581428Y-11602714D01*
X20638571Y-11602714D01*
X20667143Y-11588429D01*
X20681428Y-11559857D01*
X20681428Y-11545571D01*
X20667143Y-11517000D01*
X20638571Y-11502714D01*
X20595714Y-11502714D01*
X20567143Y-11488429D01*
X20552857Y-11459857D01*
X20552857Y-11445571D01*
X20567143Y-11417000D01*
X20595714Y-11402714D01*
X20638571Y-11402714D01*
X20667143Y-11417000D01*
X20781428Y-11717000D02*
X20795714Y-11702714D01*
X20824286Y-11659857D01*
X20838571Y-11631286D01*
X20852857Y-11588429D01*
X20867143Y-11517000D01*
X20867143Y-11459857D01*
X20852857Y-11388429D01*
X20838571Y-11345571D01*
X20824286Y-11317000D01*
X20795714Y-11274143D01*
X20781428Y-11259857D01*
M02*
